<svg xmlns="http://www.w3.org/2000/svg" viewBox="-6.1 -68.1 228.2 80.9" width="228" height="81" style="color:#1a1d21" role="img" aria-label="Done."><path d="M12.780000000000001 0.0V-9.05H27.32Q32.92 -9.05 37.144999999999996 -11.425Q41.37 -13.8 43.724999999999994 -18.105Q46.08 -22.41 46.08 -28.14Q46.08 -33.8 43.685 -38.06Q41.29 -42.32 37.07 -44.695Q32.85 -47.07 27.32 -47.07H12.68V-56.120000000000005H27.53Q33.69 -56.120000000000005 38.945 -54.015Q44.2 -51.910000000000004 48.115 -48.115Q52.03 -44.32 54.205 -39.22Q56.38 -34.12 56.38 -28.060000000000002Q56.38 -22.07 54.205 -16.935000000000002Q52.03 -11.8 48.150000000000006 -8.005Q44.27 -4.21 39.02 -2.105Q33.77 0.0 27.69 0.0ZM5.91 0.0V-56.120000000000005H15.96V0.0ZM82.14 0.8200000000000001Q76.43 0.8200000000000001 71.805 -1.8599999999999999Q67.18 -4.54 64.47 -9.120000000000001Q61.760000000000005 -13.700000000000001 61.760000000000005 -19.34Q61.760000000000005 -24.98 64.465 -29.480000000000004Q67.17 -33.980000000000004 71.795 -36.660000000000004Q76.42 -39.34 82.13 -39.34Q87.91 -39.34 92.53 -36.695Q97.15 -34.05 99.86000000000001 -29.515Q102.57000000000001 -24.98 102.57000000000001 -19.34Q102.57000000000001 -13.700000000000001 99.86500000000001 -9.120000000000001Q97.16 -4.54 92.53999999999999 -1.8599999999999999Q87.92 0.8200000000000001 82.14 0.8200000000000001ZM82.13 -8.32Q85.25 -8.32 87.64 -9.72Q90.03 -11.120000000000001 91.355 -13.625Q92.68 -16.13 92.68 -19.330000000000002Q92.68 -22.53 91.315 -24.965000000000003Q89.95 -27.400000000000002 87.6 -28.8Q85.25 -30.2 82.13 -30.2Q79.09 -30.2 76.7 -28.795Q74.31 -27.39 72.98 -24.955Q71.65 -22.52 71.65 -19.32Q71.65 -16.13 72.98 -13.625Q74.31 -11.120000000000001 76.7 -9.72Q79.09 -8.32 82.13 -8.32ZM135.7 0.0V-22.150000000000002Q135.7 -25.8 133.39999999999998 -28.125Q131.1 -30.45 127.50714285714285 -30.45Q125.06214285714286 -30.45 123.18607142857144 -29.4Q121.31 -28.35 120.255 -26.465000000000003Q119.2 -24.580000000000002 119.2 -22.150000000000002L115.42999999999999 -24.17Q115.42999999999999 -28.62 117.375 -32.025Q119.32 -35.43 122.75271573604061 -37.375Q126.18543147208122 -39.32 130.5277157360406 -39.32Q134.81 -39.32 138.165 -37.16Q141.51999999999998 -35.0 143.44 -31.55Q145.36 -28.1 145.36 -24.28V0.0ZM109.53999999999999 0.0V-38.52H119.2V0.0ZM172.19 0.8200000000000001Q166.29 0.8200000000000001 161.615 -1.7799999999999998Q156.94 -4.38 154.23000000000002 -8.955Q151.52 -13.530000000000001 151.52 -19.26Q151.52 -24.98 154.185 -29.515Q156.85 -34.05 161.425 -36.695Q166.0 -39.34 171.61 -39.34Q177.07 -39.34 181.265 -36.855000000000004Q185.46 -34.37 187.86 -30.03Q190.26 -25.69 190.26 -20.14Q190.26 -19.150000000000002 190.14 -18.11Q190.02 -17.07 189.76 -15.8L157.74 -15.77V-23.27L185.04 -23.3L181.26 -20.25Q181.12 -23.73 179.97500000000002 -26.085Q178.83 -28.44 176.715 -29.69Q174.6 -30.94 171.51 -30.94Q168.27 -30.94 165.88 -29.53Q163.49 -28.12 162.185 -25.565Q160.88 -23.01 160.88 -19.46Q160.88 -15.9 162.265 -13.245000000000001Q163.65 -10.59 166.2 -9.155Q168.75 -7.72 172.12 -7.72Q175.06 -7.72 177.53 -8.745Q180.0 -9.77 181.76 -11.77L187.64 -5.83Q184.82 -2.54 180.8 -0.86Q176.78 0.8200000000000001 172.19 0.8200000000000001ZM203.94 0.8200000000000001Q201.23000000000002 0.8200000000000001 199.485 -1.005Q197.74 -2.83 197.74 -5.46Q197.74 -8.17175 199.485 -9.960875Q201.23000000000002 -11.75 203.94 -11.75Q206.65 -11.75 208.39 -9.960875Q210.13 -8.17175 210.13 -5.46Q210.13 -2.83 208.39 -1.005Q206.65 0.8200000000000001 203.94 0.8200000000000001Z" fill="currentColor"/></svg>