<svg xmlns="http://www.w3.org/2000/svg" viewBox="-156.2 -64.5 312.5 112.7" width="312" height="113" style="color:#1a1d21" role="img" aria-label="Done. — Focus & Productivity"><g transform="translate(-97.02,0)"><path d="M11.501999999999999 0.0V-8.145H24.587999999999997Q29.627999999999997 -8.145 33.430499999999995 -10.282499999999999Q37.233 -12.42 39.35249999999999 -16.2945Q41.471999999999994 -20.168999999999997 41.471999999999994 -25.325999999999997Q41.471999999999994 -30.419999999999998 39.31649999999999 -34.254Q37.160999999999994 -38.087999999999994 33.363 -40.2255Q29.564999999999998 -42.363 24.587999999999997 -42.363H11.411999999999999V-50.507999999999996H24.776999999999997Q30.320999999999998 -50.507999999999996 35.0505 -48.613499999999995Q39.779999999999994 -46.718999999999994 43.3035 -43.3035Q46.827 -39.888 48.784499999999994 -35.298Q50.742 -30.708 50.742 -25.253999999999998Q50.742 -19.863 48.784499999999994 -15.241499999999998Q46.827 -10.62 43.334999999999994 -7.2044999999999995Q39.842999999999996 -3.7889999999999997 35.117999999999995 -1.8944999999999999Q30.392999999999997 0.0 24.921 0.0ZM5.319 0.0V-50.507999999999996H14.363999999999999V0.0ZM73.92599999999999 0.738Q68.78699999999999 0.738 64.6245 -1.6739999999999997Q60.461999999999996 -4.085999999999999 58.022999999999996 -8.207999999999998Q55.583999999999996 -12.329999999999998 55.583999999999996 -17.406Q55.583999999999996 -22.482 58.018499999999996 -26.531999999999996Q60.452999999999996 -30.581999999999997 64.6155 -32.994Q68.77799999999999 -35.406 73.917 -35.406Q79.119 -35.406 83.277 -33.025499999999994Q87.435 -30.644999999999996 89.874 -26.563499999999998Q92.31299999999999 -22.482 92.31299999999999 -17.406Q92.31299999999999 -12.329999999999998 89.87849999999999 -8.207999999999998Q87.44399999999999 -4.085999999999999 83.286 -1.6739999999999997Q79.128 0.738 73.92599999999999 0.738ZM73.917 -7.4879999999999995Q76.725 -7.4879999999999995 78.876 -8.748Q81.027 -10.008 82.2195 -12.2625Q83.41199999999999 -14.517 83.41199999999999 -17.397Q83.41199999999999 -20.276999999999997 82.1835 -22.4685Q80.955 -24.659999999999997 78.84 -25.919999999999998Q76.725 -27.18 73.917 -27.18Q71.181 -27.18 69.03 -25.9155Q66.87899999999999 -24.651 65.68199999999999 -22.4595Q64.485 -20.267999999999997 64.485 -17.387999999999998Q64.485 -14.517 65.68199999999999 -12.2625Q66.87899999999999 -10.008 69.03 -8.748Q71.181 -7.4879999999999995 73.917 -7.4879999999999995ZM122.13 0.0V-19.935Q122.13 -23.22 120.06 -25.3125Q117.99 -27.404999999999998 114.75642857142856 -27.404999999999998Q112.55592857142857 -27.404999999999998 110.86746428571428 -26.459999999999997Q109.17899999999999 -25.514999999999997 108.22949999999999 -23.8185Q107.27999999999999 -22.122 107.27999999999999 -19.935L103.88699999999999 -21.753Q103.88699999999999 -25.758 105.63749999999999 -28.822499999999998Q107.38799999999999 -31.886999999999997 110.47744416243654 -33.637499999999996Q113.56688832487309 -35.388 117.47494416243654 -35.388Q121.329 -35.388 124.3485 -33.443999999999996Q127.368 -31.499999999999996 129.096 -28.394999999999996Q130.82399999999998 -25.29 130.82399999999998 -21.851999999999997V0.0ZM98.586 0.0V-34.668H107.27999999999999V0.0ZM154.971 0.738Q149.661 0.738 145.45350000000002 -1.6019999999999999Q141.246 -3.9419999999999997 138.80700000000002 -8.0595Q136.368 -12.177 136.368 -17.334Q136.368 -22.482 138.7665 -26.563499999999998Q141.165 -30.644999999999996 145.2825 -33.025499999999994Q149.4 -35.406 154.449 -35.406Q159.363 -35.406 163.1385 -33.1695Q166.914 -30.932999999999996 169.074 -27.026999999999997Q171.234 -23.121 171.234 -18.125999999999998Q171.234 -17.235 171.126 -16.299Q171.018 -15.363 170.784 -14.219999999999999L141.966 -14.193V-20.942999999999998L166.536 -20.97L163.13400000000001 -18.224999999999998Q163.008 -21.357 161.97750000000002 -23.476499999999998Q160.947 -25.595999999999997 159.0435 -26.720999999999997Q157.14 -27.845999999999997 154.359 -27.845999999999997Q151.443 -27.845999999999997 149.292 -26.576999999999998Q147.141 -25.308 145.9665 -23.008499999999998Q144.792 -20.709 144.792 -17.514Q144.792 -14.309999999999999 146.0385 -11.920499999999999Q147.285 -9.530999999999999 149.57999999999998 -8.2395Q151.875 -6.9479999999999995 154.90800000000002 -6.9479999999999995Q157.554 -6.9479999999999995 159.777 -7.8705Q162.0 -8.793 163.584 -10.593L168.876 -5.247Q166.338 -2.286 162.72 -0.774Q159.102 0.738 154.971 0.738ZM183.546 0.738Q181.107 0.738 179.5365 -0.9044999999999999Q177.96599999999998 -2.5469999999999997 177.96599999999998 -4.914Q177.96599999999998 -7.354574999999999 179.5365 -8.9647875Q181.107 -10.575 183.546 -10.575Q185.98499999999999 -10.575 187.551 -8.9647875Q189.117 -7.354574999999999 189.117 -4.914Q189.117 -2.5469999999999997 187.551 -0.9044999999999999Q185.98499999999999 0.738 183.546 0.738Z" fill="currentColor"/></g><g transform="translate(-142.25,34.0)"><path d="M1.32975 0.0V-12.626999999999999H3.5909999999999997V0.0ZM2.9385 -5.29425V-7.3214999999999995H9.332999999999998V-5.29425ZM2.9385 -10.599749999999998V-12.626999999999999H9.6345V-10.599749999999998ZM21.32725 0.18899999999999997Q19.956999999999997 0.18899999999999997 18.774625 -0.315Q17.59225 -0.819 16.702375 -1.7111249999999998Q15.812499999999998 -2.6032499999999996 15.314124999999997 -3.7878749999999997Q14.815749999999998 -4.972499999999999 14.815749999999998 -6.331499999999999Q14.815749999999998 -7.692749999999999 15.312999999999999 -8.867249999999999Q15.810249999999998 -10.041749999999999 16.691125 -10.933874999999999Q17.572 -11.825999999999999 18.746499999999997 -12.320999999999998Q19.921 -12.815999999999999 21.291249999999998 -12.815999999999999Q22.661499999999997 -12.815999999999999 23.836 -12.320999999999998Q25.0105 -11.825999999999999 25.89925 -10.933874999999999Q26.787999999999997 -10.041749999999999 27.285249999999998 -8.858249999999998Q27.7825 -7.6747499999999995 27.7825 -6.3134999999999994Q27.7825 -4.9544999999999995 27.285249999999998 -3.771Q26.787999999999997 -2.5875 25.907124999999997 -1.7021249999999999Q25.026249999999997 -0.81675 23.852874999999997 -0.313875Q22.679499999999997 0.18899999999999997 21.32725 0.18899999999999997ZM21.291249999999998 -1.9394999999999998Q22.5355 -1.9394999999999998 23.470374999999997 -2.4974999999999996Q24.405249999999995 -3.0555 24.935124999999996 -4.044375Q25.464999999999996 -5.03325 25.464999999999996 -6.331499999999999Q25.464999999999996 -7.296749999999999 25.161249999999995 -8.09325Q24.857499999999998 -8.88975 24.2995 -9.47475Q23.7415 -10.05975 22.980999999999998 -10.373625Q22.220499999999998 -10.6875 21.291249999999998 -10.6875Q20.062749999999998 -10.6875 19.127874999999996 -10.1385Q18.192999999999998 -9.5895 17.663124999999997 -8.609625Q17.133249999999997 -7.62975 17.133249999999997 -6.331499999999999Q17.133249999999997 -5.364 17.436999999999998 -4.550625Q17.74075 -3.7372499999999995 18.290875 -3.160125Q18.840999999999998 -2.5829999999999997 19.609375 -2.2612499999999995Q20.37775 -1.9394999999999998 21.291249999999998 -1.9394999999999998ZM39.77224999999999 0.1845Q38.39075 0.1845 37.216249999999995 -0.3105Q36.04174999999999 -0.8055 35.1665 -1.697625Q34.29125 -2.58975 33.815374999999996 -3.77325Q33.339499999999994 -4.9567499999999995 33.339499999999994 -6.3157499999999995Q33.339499999999994 -7.677 33.815374999999996 -8.859375Q34.29125 -10.041749999999999 35.165375 -10.923749999999998Q36.0395 -11.80575 37.212875 -12.308625Q38.38625 -12.811499999999999 39.76774999999999 -12.811499999999999Q41.29324999999999 -12.811499999999999 42.425 -12.311999999999998Q43.556749999999994 -11.812499999999998 44.427499999999995 -10.953L42.89975 -9.423Q42.357499999999995 -10.017 41.57899999999999 -10.35Q40.8005 -10.683 39.76774999999999 -10.683Q38.85874999999999 -10.683 38.10612499999999 -10.370249999999999Q37.3535 -10.0575 36.803374999999996 -9.473624999999998Q36.253249999999994 -8.88975 35.955124999999995 -8.085374999999999Q35.657 -7.281 35.657 -6.3157499999999995Q35.657 -5.348249999999999 35.955124999999995 -4.543875Q36.253249999999994 -3.7394999999999996 36.803374999999996 -3.1556249999999997Q37.3535 -2.5717499999999998 38.10612499999999 -2.257875Q38.85874999999999 -1.944 39.76774999999999 -1.944Q40.876999999999995 -1.944 41.65774999999999 -2.282625Q42.4385 -2.62125 42.98524999999999 -3.2175L44.515249999999995 -1.6874999999999998Q43.63999999999999 -0.8122499999999999 42.467749999999995 -0.31387499999999996Q41.2955 0.1845 39.77224999999999 0.1845ZM55.23197903225806 0.1845Q53.765458064516125 0.1845 52.61667338709677 -0.4683308823529411Q51.46788870967741 -1.1211617647058822 50.8071943548387 -2.260455882352941Q50.146499999999996 -3.3997499999999996 50.146499999999996 -4.8397499999999996V-12.626999999999999H52.40774999999999V-4.8149999999999995Q52.40774999999999 -3.935841549295774 52.77962732342007 -3.289109154929577Q53.151504646840145 -2.64237676056338 53.79291775092936 -2.29318838028169Q54.43433085501858 -1.944 55.22951765799256 -1.944Q56.039249999999996 -1.944 56.66074077181207 -2.2927712264150943Q57.28223154362416 -2.6415424528301887 57.64511577181207 -3.286379716981132Q58.007999999999996 -3.931216981132075 58.007999999999996 -4.797V-12.626999999999999H60.27149999999999V-4.82175Q60.27149999999999 -3.3810284810126583 59.619523255813945 -2.2514240506329113Q58.9675465116279 -1.1218196202531645 57.83302325581395 -0.46865981012658225Q56.698499999999996 0.1845 55.23197903225806 0.1845ZM70.22049999999999 0.1845Q68.70849999999999 0.1845 67.643125 -0.34762499999999996Q66.57775 -0.8797499999999999 65.725 -1.9237499999999998L67.23474999999999 -3.4334999999999996Q67.77924999999999 -2.6887499999999998 68.506 -2.27475Q69.23275 -1.86075 70.31949999999999 -1.86075Q71.32525 -1.86075 71.915875 -2.2668749999999998Q72.50649999999999 -2.6729999999999996 72.50649999999999 -3.384Q72.50649999999999 -3.9847499999999996 72.18249999999999 -4.363874999999999Q71.85849999999999 -4.742999999999999 71.32749999999999 -4.997249999999999Q70.7965 -5.251499999999999 70.1575 -5.459624999999999Q69.51849999999999 -5.66775 68.88062499999998 -5.934374999999999Q68.24274999999999 -6.201 67.71175 -6.602625Q67.18074999999999 -7.00425 66.85674999999999 -7.637625Q66.53275 -8.270999999999999 66.53275 -9.240749999999998Q66.53275 -10.372499999999999 67.087375 -11.170124999999999Q67.642 -11.967749999999999 68.596 -12.389624999999999Q69.55 -12.811499999999999 70.74024999999999 -12.811499999999999Q72.00699999999999 -12.811499999999999 73.0195 -12.328875Q74.032 -11.84625 74.66874999999999 -11.078999999999999L73.15674999999999 -9.569249999999998Q72.60999999999999 -10.176749999999998 72.02387499999999 -10.471499999999999Q71.43775 -10.76625 70.68849999999999 -10.76625Q69.79974999999999 -10.76625 69.2935 -10.413Q68.78724999999999 -10.05975 68.78724999999999 -9.41625Q68.78724999999999 -8.865 69.11124999999998 -8.5275Q69.43525 -8.19 69.96625 -7.952624999999999Q70.49725 -7.715249999999999 71.13624999999999 -7.49925Q71.77524999999999 -7.28325 72.41312499999998 -7.009874999999999Q73.05099999999999 -6.7364999999999995 73.582 -6.308999999999999Q74.113 -5.8815 74.437 -5.21325Q74.761 -4.545 74.761 -3.5414999999999996Q74.761 -1.8157499999999998 73.53925 -0.8156249999999998Q72.3175 0.1845 70.22049999999999 0.1845ZM96.40275 0.0 90.46275 -6.5024999999999995Q89.7945 -7.244999999999999 89.46825 -7.91325Q89.142 -8.5815 89.142 -9.391499999999999Q89.142 -10.35 89.615625 -11.127375Q90.08924999999999 -11.90475 90.91162499999999 -12.366Q91.734 -12.82725 92.79825 -12.82725Q93.61275 -12.82725 94.270875 -12.56625Q94.929 -12.30525 95.42512500000001 -11.88675Q95.92125 -11.46825 96.234 -10.979999999999999L94.7085 -9.59625Q94.3215 -10.125 93.87937500000001 -10.443375Q93.43725 -10.76175 92.8095 -10.76175Q92.1615 -10.76175 91.721625 -10.379249999999999Q91.28175 -9.996749999999999 91.28175 -9.423Q91.28175 -8.86275 91.514625 -8.48925Q91.7475 -8.11575 92.166 -7.62975L98.99025 0.0ZM92.1345 0.1845Q90.8385 0.1845 89.87549999999999 -0.31499999999999995Q88.9125 -0.8144999999999999 88.38149999999999 -1.6908749999999997Q87.8505 -2.5672499999999996 87.8505 -3.6809999999999996Q87.8505 -4.82625 88.472625 -5.734125Q89.09475 -6.6419999999999995 90.31425 -7.2044999999999995L91.2975 -5.85225Q90.663 -5.5215 90.324375 -5.018625Q89.98575 -4.51575 89.98575 -3.7642499999999997Q89.98575 -3.1635 90.261375 -2.73825Q90.537 -2.3129999999999997 91.041 -2.080125Q91.545 -1.8472499999999998 92.20425 -1.8472499999999998Q93.04575 -1.8472499999999998 93.609375 -2.1971249999999998Q94.173 -2.5469999999999997 94.47675 -3.0555L95.9145 -1.4422499999999998Q95.55225 -0.99225 94.966125 -0.624375Q94.38 -0.2565 93.65775 -0.036000000000000004Q92.9355 0.1845 92.1345 0.1845ZM112.95050000000002 -4.7204999999999995V-6.6194999999999995H115.99700000000001Q116.60864884393065 -6.6194999999999995 117.08924494219654 -6.866147727272727Q117.56984104046244 -7.112795454545454 117.84879552023122 -7.573424999999999Q118.12775000000002 -8.034054545454545 118.12775000000002 -8.67375Q118.12775000000002 -9.313445454545453 117.84879552023122 -9.774075Q117.56984104046244 -10.234704545454544 117.08924494219654 -10.481352272727271Q116.60864884393065 -10.728 115.99700000000001 -10.728H112.95050000000002V-12.626999999999999H116.17925000000001Q117.37400000000001 -12.626999999999999 118.32575000000001 -12.139875Q119.27750000000002 -11.65275 119.83100000000002 -10.768198170731708Q120.38450000000002 -9.883646341463415 120.38450000000002 -8.676823170731707Q120.38450000000002 -7.47225 119.83100000000002 -6.5835Q119.27750000000002 -5.69475 118.32575000000001 -5.207625Q117.37400000000001 -4.7204999999999995 116.17925000000001 -4.7204999999999995ZM111.34175000000002 0.0V-12.626999999999999H113.60300000000001V0.0ZM127.78650000000003 -5.31675V-7.123499999999999H130.84650000000002Q131.7735 -7.123499999999999 132.28650000000002 -7.6016249999999985Q132.79950000000002 -8.079749999999999 132.79950000000002 -8.925749999999999Q132.79950000000002 -9.693 132.29437500000003 -10.2105Q131.78925000000004 -10.728 130.86225000000002 -10.728H127.78650000000003V-12.626999999999999H131.01300000000003Q132.21900000000002 -12.626999999999999 133.13250000000002 -12.148875Q134.04600000000002 -11.67075 134.551125 -10.846125Q135.05625000000003 -10.0215 135.05625000000003 -8.963999999999999Q135.05625000000003 -7.859249999999999 134.55 -7.0424999999999995Q134.04375000000002 -6.22575 133.12575000000004 -5.77125Q132.20775000000003 -5.31675 130.99050000000003 -5.31675ZM126.17775000000003 0.0V-12.626999999999999H128.43900000000002V0.0ZM133.08975000000004 0.0 128.79450000000003 -5.4719999999999995 130.88475000000003 -6.1739999999999995 135.88425000000004 0.0ZM147.07525000000004 0.18899999999999997Q145.70500000000004 0.18899999999999997 144.52262500000003 -0.315Q143.34025000000003 -0.819 142.45037500000004 -1.7111249999999998Q141.56050000000005 -2.6032499999999996 141.06212500000004 -3.7878749999999997Q140.56375000000003 -4.972499999999999 140.56375000000003 -6.331499999999999Q140.56375000000003 -7.692749999999999 141.06100000000004 -8.867249999999999Q141.55825000000004 -10.041749999999999 142.43912500000005 -10.933874999999999Q143.32000000000002 -11.825999999999999 144.49450000000002 -12.320999999999998Q145.66900000000004 -12.815999999999999 147.03925000000004 -12.815999999999999Q148.40950000000004 -12.815999999999999 149.58400000000003 -12.320999999999998Q150.75850000000003 -11.825999999999999 151.64725000000004 -10.933874999999999Q152.53600000000003 -10.041749999999999 153.03325 -8.858249999999998Q153.53050000000002 -7.6747499999999995 153.53050000000002 -6.3134999999999994Q153.53050000000002 -4.9544999999999995 153.03325 -3.771Q152.53600000000003 -2.5875 151.65512500000003 -1.7021249999999999Q150.77425000000002 -0.81675 149.60087500000003 -0.313875Q148.42750000000004 0.18899999999999997 147.07525000000004 0.18899999999999997ZM147.03925000000004 -1.9394999999999998Q148.28350000000003 -1.9394999999999998 149.21837500000004 -2.4974999999999996Q150.15325000000004 -3.0555 150.68312500000002 -4.044375Q151.21300000000002 -5.03325 151.21300000000002 -6.331499999999999Q151.21300000000002 -7.296749999999999 150.90925000000004 -8.09325Q150.60550000000003 -8.88975 150.0475 -9.47475Q149.48950000000002 -10.05975 148.72900000000004 -10.373625Q147.96850000000003 -10.6875 147.03925000000004 -10.6875Q145.81075000000004 -10.6875 144.87587500000004 -10.1385Q143.94100000000003 -9.5895 143.41112500000003 -8.609625Q142.88125000000002 -7.62975 142.88125000000002 -6.331499999999999Q142.88125000000002 -5.364 143.18500000000003 -4.550625Q143.48875000000004 -3.7372499999999995 144.03887500000002 -3.160125Q144.58900000000003 -2.5829999999999997 145.35737500000005 -2.2612499999999995Q146.12575000000004 -1.9394999999999998 147.03925000000004 -1.9394999999999998ZM161.10350000000003 0.0V-2.03625H164.37500000000003Q165.63500000000005 -2.03625 166.58562500000005 -2.5706249999999997Q167.53625000000002 -3.105 168.06612500000003 -4.073625Q168.59600000000003 -5.042249999999999 168.59600000000003 -6.331499999999999Q168.59600000000003 -7.6049999999999995 168.05712500000004 -8.5635Q167.51825000000002 -9.521999999999998 166.56875000000002 -10.056375Q165.61925000000002 -10.59075 164.37500000000003 -10.59075H161.08100000000005V-12.626999999999999H164.42225000000005Q165.80825000000004 -12.626999999999999 166.99062500000002 -12.153374999999999Q168.17300000000003 -11.679749999999999 169.05387500000003 -10.825875Q169.93475000000004 -9.972 170.42412500000003 -8.8245Q170.91350000000003 -7.677 170.91350000000003 -6.3134999999999994Q170.91350000000003 -4.96575 170.42412500000003 -3.8103749999999996Q169.93475000000004 -2.655 169.06175000000002 -1.8011249999999999Q168.18875000000003 -0.9472499999999999 167.00750000000005 -0.47362499999999996Q165.82625000000004 0.0 164.45825000000005 0.0ZM159.55775000000003 0.0V-12.626999999999999H161.81900000000005V0.0ZM181.8799790322581 0.1845Q180.41345806451616 0.1845 179.26467338709682 -0.4683308823529411Q178.11588870967745 -1.1211617647058822 177.45519435483874 -2.260455882352941Q176.79450000000003 -3.3997499999999996 176.79450000000003 -4.8397499999999996V-12.626999999999999H179.05575000000005V-4.8149999999999995Q179.05575000000005 -3.935841549295774 179.4276273234201 -3.289109154929577Q179.79950464684018 -2.64237676056338 180.4409177509294 -2.29318838028169Q181.08233085501863 -1.944 181.8775176579926 -1.944Q182.68725000000003 -1.944 183.3087407718121 -2.2927712264150943Q183.9302315436242 -2.6415424528301887 184.2931157718121 -3.286379716981132Q184.65600000000003 -3.931216981132075 184.65600000000003 -4.797V-12.626999999999999H186.91950000000003V-4.82175Q186.91950000000003 -3.3810284810126583 186.26752325581398 -2.2514240506329113Q185.61554651162794 -1.1218196202531645 184.48102325581397 -0.46865981012658225Q183.34650000000002 0.1845 181.8799790322581 0.1845ZM199.22425000000004 0.1845Q197.84275000000005 0.1845 196.66825000000006 -0.3105Q195.49375000000006 -0.8055 194.61850000000004 -1.697625Q193.74325000000005 -2.58975 193.26737500000004 -3.77325Q192.79150000000004 -4.9567499999999995 192.79150000000004 -6.3157499999999995Q192.79150000000004 -7.677 193.26737500000004 -8.859375Q193.74325000000005 -10.041749999999999 194.61737500000004 -10.923749999999998Q195.49150000000006 -11.80575 196.66487500000005 -12.308625Q197.83825000000004 -12.811499999999999 199.21975000000006 -12.811499999999999Q200.74525000000006 -12.811499999999999 201.87700000000007 -12.311999999999998Q203.00875000000005 -11.812499999999998 203.87950000000006 -10.953L202.35175000000004 -9.423Q201.80950000000004 -10.017 201.03100000000006 -10.35Q200.25250000000005 -10.683 199.21975000000006 -10.683Q198.31075000000004 -10.683 197.55812500000005 -10.370249999999999Q196.80550000000005 -10.0575 196.25537500000007 -9.473624999999998Q195.70525000000006 -8.88975 195.40712500000006 -8.085374999999999Q195.10900000000004 -7.281 195.10900000000004 -6.3157499999999995Q195.10900000000004 -5.348249999999999 195.40712500000006 -4.543875Q195.70525000000006 -3.7394999999999996 196.25537500000007 -3.1556249999999997Q196.80550000000005 -2.5717499999999998 197.55812500000005 -2.257875Q198.31075000000004 -1.944 199.21975000000006 -1.944Q200.32900000000006 -1.944 201.10975000000008 -2.282625Q201.89050000000006 -2.62125 202.43725000000006 -3.2175L203.96725000000004 -1.6874999999999998Q203.09200000000004 -0.8122499999999999 201.91975000000005 -0.31387499999999996Q200.74750000000006 0.1845 199.22425000000004 0.1845ZM212.67425000000006 0.0V-12.312H214.93550000000005V0.0ZM208.60400000000004 -10.59075V-12.626999999999999H219.00800000000007V-10.59075ZM224.75175000000004 0.0V-12.626999999999999H227.01300000000006V0.0ZM237.77425000000008 0.0 232.72975000000008 -12.626999999999999H235.17550000000006L239.09050000000008 -2.403H238.18600000000006L242.13925000000006 -12.626999999999999H244.54675000000006L239.46175000000008 0.0ZM250.26575000000005 0.0V-12.626999999999999H252.52700000000007V0.0ZM262.33425000000005 0.0V-12.312H264.5955000000001V0.0ZM258.26400000000007 -10.59075V-12.626999999999999H268.66800000000006V-10.59075ZM277.59100000000007 -4.96125 272.6815000000001 -12.626999999999999H275.2937500000001L279.1097500000001 -6.493499999999999H277.7462500000001L281.56225000000006 -12.626999999999999H284.13175000000007L279.1862500000001 -4.96125ZM277.2872500000001 0.0V-6.259499999999999H279.5485000000001V0.0Z" fill="currentColor" opacity="0.55"/></g></svg>