<svg xmlns="http://www.w3.org/2000/svg" viewBox="0 0 134.4 134.4" width="134" height="134" role="img" aria-label="Done."><rect x="1.5" y="1.5" width="131.4" height="131.4" rx="28" ry="28" fill="#ffffff" stroke="#e3e5ea" stroke-width="2"/><g transform="translate(14.82,101.85)"><path d="M16.45 0.0V-12.125H34.4Q41.2 -12.125 46.3125 -14.9625Q51.425000000000004 -17.8 54.2625 -23.012500000000003Q57.1 -28.225 57.1 -35.25Q57.1 -42.2 54.212500000000006 -47.35Q51.325 -52.5 46.225 -55.337500000000006Q41.125 -58.175000000000004 34.4 -58.175000000000004H16.2V-70.3H34.625Q42.425000000000004 -70.3 49.0625 -67.6875Q55.7 -65.075 60.6375 -60.337500000000006Q65.575 -55.6 68.3125 -49.2Q71.05 -42.800000000000004 71.05 -35.15Q71.05 -27.575000000000003 68.3125 -21.137500000000003Q65.575 -14.700000000000001 60.675000000000004 -9.9625Q55.775000000000006 -5.2250000000000005 49.150000000000006 -2.6125000000000003Q42.525000000000006 0.0 34.825 0.0ZM7.175000000000001 0.0V-70.3H20.8V0.0ZM89.45 1.05Q85.875 1.05 83.5625 -1.3625000000000003Q81.25 -3.7750000000000004 81.25 -7.25Q81.25 -10.829375 83.5625 -13.2021875Q85.875 -15.575000000000001 89.45 -15.575000000000001Q93.025 -15.575000000000001 95.325 -13.2021875Q97.625 -10.829375 97.625 -7.25Q97.625 -3.7750000000000004 95.325 -1.3625000000000003Q93.025 1.05 89.45 1.05Z" fill="#1a1d21"/></g></svg>